<svg width="21" height="13" viewBox="0 0 21 13" fill="none" xmlns="http://www.w3.org/2000/svg">
<path d="M10.5 0.539062C6.67879 0.539062 3.21351 2.62968 0.65649 6.02541C0.447837 6.30361 0.447837 6.69228 0.65649 6.97048C3.21351 10.3703 6.67879 12.4609 10.5 12.4609C14.3212 12.4609 17.7865 10.3703 20.3435 6.97457C20.5522 6.69637 20.5522 6.3077 20.3435 6.0295C17.7865 2.62968 14.3212 0.539062 10.5 0.539062ZM10.7741 10.6976C8.23755 10.8572 6.14284 8.76653 6.30239 6.22588C6.43331 4.13117 8.13118 2.4333 10.2259 2.30238C12.7625 2.14283 14.8572 4.23345 14.6976 6.7741C14.5626 8.86472 12.8647 10.5626 10.7741 10.6976ZM10.6473 8.75835C9.28081 8.84427 8.15163 7.71918 8.24164 6.35271C8.31119 5.22353 9.22763 4.31118 10.3568 4.23754C11.7233 4.15162 12.8525 5.27671 12.7625 6.64318C12.6888 7.77646 11.7724 8.6888 10.6473 8.75835Z" fill="#111827"/>
</svg>
