<svg width="18" height="19" viewBox="0 0 18 19" fill="none" xmlns="http://www.w3.org/2000/svg">
<path d="M17.8901 17.3296L12.6613 12.1008C13.653 10.8764 14.25 9.31978 14.25 7.62503C14.25 3.69631 11.0537 0.5 7.125 0.5C3.19627 0.5 0 3.69631 0 7.62503C0 11.5538 3.19631 14.7501 7.12503 14.7501C8.81978 14.7501 10.3764 14.153 11.6007 13.1613L16.8296 18.3902C16.9761 18.5366 17.2135 18.5366 17.36 18.3902L17.8902 17.86C18.0366 17.7135 18.0366 17.4761 17.8901 17.3296ZM7.12503 13.25C4.02322 13.25 1.50002 10.7268 1.50002 7.62503C1.50002 4.52322 4.02322 2.00002 7.12503 2.00002C10.2268 2.00002 12.75 4.52322 12.75 7.62503C12.75 10.7268 10.2268 13.25 7.12503 13.25Z" fill="#111827"/>
</svg>
