<svg width="21" height="13" fill="none" xmlns="http://www.w3.org/2000/svg"><path d="M10.5.54C6.679.54 3.214 2.63.656 6.024a.792.792 0 000 .945c2.558 3.4 6.023 5.49 9.844 5.49 3.821 0 7.287-2.09 9.843-5.485a.792.792 0 000-.946C17.787 2.63 14.321.54 10.5.54zm.274 10.158a4.21 4.21 0 01-4.472-4.472 4.216 4.216 0 013.924-3.924 4.209 4.209 0 014.472 4.472 4.23 4.23 0 01-3.924 3.924zm-.127-1.94a2.261 2.261 0 01-2.405-2.405 2.275 2.275 0 012.115-2.115 2.261 2.261 0 012.405 2.405 2.275 2.275 0 01-2.115 2.115z" fill="#111827"/></svg>